<svg xmlns="http://www.w3.org/2000/svg" version="1.1" xmlns:xlink="http://www.w3.org/1999/xlink" viewBox="0 0 200 200" width="200" height="200"><rect width="200" height="200" fill="url('#gradient')"></rect><defs><linearGradient id="gradient" gradientTransform="rotate(279 0.5 0.5)"><stop offset="0%" stop-color="#fffa00"></stop><stop offset="100%" stop-color="#000000"></stop></linearGradient></defs><g><g fill="#000000" transform="matrix(2.819343452170844,0,0,2.819343452170844,18.309916006917035,120.7117100869814)" stroke="#ffffff" stroke-width="0.4"><path d="M4.73-14.22L4.73 0L1.31 0L1.31-14.22L4.73-14.22ZM17.99-14.22L17.99-11.57L13.72-11.57L13.72 0L10.29 0L10.29-11.57L6.10-11.57L6.10-14.22L17.99-14.22ZM23.06-7.40L23.06-4.85L17.19-4.85L17.19-7.40L23.06-7.40ZM29.09-10.57L29.09 0L25.79 0L25.79-10.57L29.09-10.57ZM25.60-13.29L25.60-13.29Q25.60-13.99 26.10-14.44Q26.61-14.89 27.42-14.89Q28.23-14.89 28.74-14.44Q29.25-13.99 29.25-13.29Q29.25-12.59 28.74-12.14Q28.23-11.69 27.42-11.69Q26.61-11.69 26.10-12.14Q25.60-12.59 25.60-13.29ZM31.05-10.57L34.14-10.57L34.25-9.33Q35.34-10.76 37.27-10.76L37.27-10.76Q38.92-10.76 39.73-9.78Q40.55-8.79 40.58-6.81L40.58-6.81L40.58 0L37.28 0L37.28-6.67Q37.28-7.47 36.95-7.85Q36.63-8.22 35.78-8.22L35.78-8.22Q34.81-8.22 34.35-7.46L34.35-7.46L34.35 0L31.05 0L31.05-10.57ZM46.87-2.34L46.87-2.34Q47.56-2.34 47.94-2.72Q48.32-3.10 48.31-3.77L48.31-3.77L51.40-3.77Q51.40-2.03 50.15-0.92Q48.91 0.20 46.94 0.20L46.94 0.20Q44.64 0.20 43.31-1.25Q41.98-2.70 41.98-5.25L41.98-5.25L41.98-5.39Q41.98-6.99 42.57-8.22Q43.16-9.44 44.28-10.10Q45.39-10.76 46.91-10.76L46.91-10.76Q48.97-10.76 50.19-9.62Q51.40-8.48 51.40-6.52L51.40-6.52L48.31-6.52Q48.31-7.34 47.91-7.78Q47.51-8.22 46.84-8.22L46.84-8.22Q45.56-8.22 45.34-6.59L45.34-6.59Q45.27-6.07 45.27-5.17L45.27-5.17Q45.27-3.57 45.65-2.96Q46.04-2.34 46.87-2.34ZM54.82-3.19L54.82-3.19Q55.61-3.19 56.12-2.73Q56.64-2.27 56.64-1.54Q56.64-0.82 56.12-0.36Q55.61 0.11 54.82 0.11L54.82 0.11Q54.03 0.11 53.52-0.36Q53.01-0.83 53.01-1.54Q53.01-2.26 53.52-2.72Q54.03-3.19 54.82-3.19Z"></path></g></g></svg>